{
   "accessors" : [
      {
         "bufferView" : 0,
         "componentType" : 5126,
         "count" : 598967,
         "max" : [ 623.3621215820312, 133.4792022705078, 429.0752563476562 ],
         "min" : [ -623.099609375, -786.2459716796875, -78.11344909667969 ],
         "type" : "VEC3"
      },
      {
         "bufferView" : 1,
         "componentType" : 5126,
         "count" : 598967,
         "type" : "VEC3"
      },
      {
         "bufferView" : 2,
         "componentType" : 5125,
         "count" : 598971,
         "type" : "SCALAR"
      }
   ],
   "asset" : {
      "extras" : {
         "GOOGLE_processor_version" : 313310320
      },
      "generator" : "Khronos glTF Blender I/O v1.3.48",
      "version" : "2.0"
   },
   "bufferViews" : [
      {
         "buffer" : 0,
         "byteLength" : 7187604,
         "byteOffset" : 0
      },
      {
         "buffer" : 0,
         "byteLength" : 7187604,
         "byteOffset" : 7187604
      },
      {
         "buffer" : 0,
         "byteLength" : 2395884,
         "byteOffset" : 14375208
      }
   ],
   "buffers" : [
      {
         "byteLength" : 16771092,
         "uri" : "Dragon.bin"
      }
   ],
   "cameras" : [
      {
         "perspective" : {
            "yfov" : 0.7853981633974483,
            "znear" : 0.1000000014901161
         },
         "type" : "perspective"
      }
   ],
   "extensions" : {
      "KHR_lights_punctual" : {
         "lights" : [
            {
               "color" : [ 1, 0.9333333333333333, 0.8666666666666667 ],
               "intensity" : 0.07500000298023224,
               "name" : "headLight",
               "type" : "directional"
            },
            {
               "color" : [ 1, 0.9333333333333333, 0.8666666666666667 ],
               "intensity" : 0.09750000029802308,
               "name" : "keyLight",
               "type" : "directional"
            }
         ]
      }
   },
   "extensionsUsed" : [ "GOOGLE_backgrounds", "GOOGLE_camera_settings", "KHR_lights_punctual" ],
   "extras" : {
      "GOOGLE_initial_camera_motion" : {
         "motionPath" : "FULL_ROTATION"
      },
      "GOOGLE_lighting_rig" : {
         "disableShadows" : false
      }
   },
   "images" : [
      {
         "uri" : "uploads/Cave.jpg"
      }
   ],
   "materials" : [
      {
         "alphaCutoff" : 0.5,
         "alphaMode" : "OPAQUE",
         "doubleSided" : true,
         "emissiveFactor" : [ 0, 0, 0 ],
         "name" : "Default OBJ",
         "pbrMetallicRoughness" : {
            "baseColorFactor" : [ 0.4000000059604645, 0, 0, 1 ],
            "metallicFactor" : 0,
            "roughnessFactor" : 0.5
         }
      }
   ],
   "meshes" : [
      {
         "name" : "Dragon",
         "primitives" : [
            {
               "attributes" : {
                  "NORMAL" : 1,
                  "POSITION" : 0
               },
               "indices" : 2,
               "material" : 0
            }
         ]
      }
   ],
   "nodes" : [
      {
         "mesh" : 0,
         "name" : "Dragon",
         "rotation" : [ 0.7071068286895752, 0, 0, 0.7071067094802856 ],
         "scale" : [ 0.009999999776482582, 0.009999999776482582, 0.009999999776482582 ],
         "translation" : [ -0.07269978523254395, 2.535529613494873, 3.011771202087402 ]
      },
      {
         "children" : [ 2 ]
      },
      {
         "children" : [ 3 ],
         "extras" : {
            "isTransformNode" : 1
         },
         "translation" : [ -0.1115197849456817, 0.554773098809584, -0.5692083283918481 ]
      },
      {
         "children" : [ 0 ],
         "translation" : [ 0.1115197849456817, -0.554773098809584, 0.5692083283918481 ]
      },
      {
         "camera" : 0,
         "children" : [ 5 ],
         "rotation" : [
            -0.259446447885581,
            -0.1914311265890177,
            -0.05254923768068146,
            0.9451350390666898
         ],
         "translation" : [ -5.229510018096461, 8.366266379536979, 11.54884746426108 ]
      },
      {
         "extensions" : {
            "KHR_lights_punctual" : {
               "light" : 0
            }
         },
         "extras" : {
            "isHeadLight" : 1
         },
         "name" : "headLightNode",
         "translation" : [ -7.179493456010633, 3.589746728005316, 3.589746728005316 ]
      },
      {
         "extensions" : {
            "KHR_lights_punctual" : {
               "light" : 1
            }
         },
         "extras" : {
            "isKeyLight" : 1
         },
         "name" : "keyLightNode",
         "rotation" : [ -0.7505326882858236, -0.3752663441429118, 0, 0.5439447166468927 ],
         "scale" : [ 0, 0, 7.251288390570739 ],
         "translation" : [ -7.293463380898062, 15.24669026243875, -6.606203748501569 ]
      }
   ],
   "scene" : 0,
   "scenes" : [
      {
         "extensions" : {
            "GOOGLE_backgrounds" : {
               "backgroundImage" : {
                  "index" : 0
               },
               "color" : [ 0.1882352941176471, 0.1882352941176471, 0.1882352941176471 ]
            },
            "GOOGLE_camera_settings" : {
               "mode" : "movableOrbit",
               "pivot" : [ -0.110296655369174, 0.5549587362416588, -0.5700276190606903 ]
            }
         },
         "extras" : {
            "GOOGLE_camera_index" : {
               "cameraIndex" : 0,
               "nodeIndex" : 4
            },
            "GOOGLE_geometry_data" : {
               "stats" : {
                  "centroid" : [ -0.04217499032732364, 0.7441134812972727, 0.6450846420691704 ],
                  "radius" : 7.179493456010633,
                  "stdev" : 3.161216294027068
               },
               "visualCenterPoint" : [ -0.1115197849456817, 0.554773098809584, -0.5692083283918481 ]
            }
         },
         "name" : "Scene",
         "nodes" : [ 1, 4, 6 ]
      }
   ]
}
